<?xml version="1.0" encoding="UTF-8" standalone="no"?>
<!DOCTYPE svg PUBLIC "-//W3C//DTD SVG 1.1//EN" "http://www.w3.org/Graphics/SVG/1.1/DTD/svg11.dtd">
<svg width="100%" height="100%" viewBox="0 0 1080 1080" version="1.1" xmlns="http://www.w3.org/2000/svg" xmlns:xlink="http://www.w3.org/1999/xlink" xml:space="preserve" xmlns:serif="http://www.serif.com/" style="fill-rule:evenodd;clip-rule:evenodd;stroke-linejoin:round;stroke-miterlimit:2;">
    <g transform="matrix(1,0,0,1,-8580.07,-1229.74)">
        <g id="Ball" transform="matrix(1,0,0,1,8580.07,1229.74)">
            <rect x="0" y="0" width="1080" height="1080" style="fill:none;"/>
            <clipPath id="_clip1">
                <rect x="0" y="0" width="1080" height="1080"/>
            </clipPath>
            <g clip-path="url(#_clip1)">
                <g transform="matrix(1,0,0,1,-1216.9,-2371.3)">
                    <path d="M1220.12,2852.09C1249.64,2581.87 1478.88,2371.3 1756.9,2371.3C2035.11,2371.3 2264.47,2582.15 2293.75,2852.63C2180.68,2868.3 2067.8,2879.04 1955.08,2884.84C1932.59,2796.36 1852.34,2730.83 1756.9,2730.83C1661.49,2730.83 1581.25,2796.33 1558.74,2884.78C1445.69,2878.91 1332.81,2868.01 1220.12,2852.09ZM2294.06,2967.01C2266.14,3238.91 2036.13,3451.3 1756.9,3451.3C1477.85,3451.3 1247.95,3239.17 1219.8,2967.52C1334.51,2982.91 1448.78,2993.42 1562.59,2999.05C1589.4,3080.72 1666.31,3139.76 1756.9,3139.76C1847.44,3139.76 1924.32,3080.79 1951.17,2999.19C2065.93,2993.54 2180.23,2982.82 2294.06,2967.01Z"/>
                </g>
                <g transform="matrix(1,0,0,1,-1216.9,-2371.3)">
                    <path d="M1219.8,2967.52C1217.88,2949.04 1216.9,2930.28 1216.9,2911.3C1216.9,2891.29 1217.99,2871.53 1220.12,2852.09C1332.81,2868.01 1445.69,2878.91 1558.74,2884.78C1581.25,2796.33 1661.49,2730.83 1756.9,2730.83C1852.34,2730.83 1932.59,2796.36 1955.08,2884.84C2067.8,2879.04 2180.68,2868.3 2293.75,2852.63C2295.83,2871.9 2296.9,2891.47 2296.9,2911.3C2296.9,2930.11 2295.94,2948.69 2294.06,2967.01C2180.23,2982.82 2065.93,2993.54 1951.17,2999.19C1924.32,3080.79 1847.44,3139.76 1756.9,3139.76C1666.31,3139.76 1589.4,3080.72 1562.59,2999.05C1448.78,2993.42 1334.51,2982.91 1219.8,2967.52Z" style="fill:rgb(244,191,59);"/>
                    <path d="M1219.8,2967.52C1217.88,2949.04 1216.9,2930.28 1216.9,2911.3C1216.9,2891.29 1217.99,2871.53 1220.12,2852.09C1332.81,2868.01 1445.69,2878.91 1558.74,2884.78C1581.25,2796.33 1661.49,2730.83 1756.9,2730.83C1852.34,2730.83 1932.59,2796.36 1955.08,2884.84C2067.8,2879.04 2180.68,2868.3 2293.75,2852.63C2295.83,2871.9 2296.9,2891.47 2296.9,2911.3C2296.9,2930.11 2295.94,2948.69 2294.06,2967.01C2180.23,2982.82 2065.93,2993.54 1951.17,2999.19C1924.32,3080.79 1847.44,3139.76 1756.9,3139.76C1666.31,3139.76 1589.4,3080.72 1562.59,2999.05C1448.78,2993.42 1334.51,2982.91 1219.8,2967.52ZM1238.31,2949.79C1347.14,2963.97 1455.56,2973.73 1563.58,2979.08C1571.85,2979.48 1579.01,2984.95 1581.59,2992.81C1605.78,3066.49 1675.17,3119.76 1756.9,3119.76C1838.59,3119.76 1907.94,3066.56 1932.17,2992.94C1934.76,2985.08 1941.92,2979.62 1950.19,2979.21C2059.06,2973.85 2167.51,2963.9 2275.53,2949.36C2276.44,2936.79 2276.9,2924.1 2276.9,2911.3C2276.9,2899.19 2276.49,2887.17 2275.67,2875.27C2169,2889.49 2062.47,2899.34 1956.11,2904.81C1946.59,2905.3 1938.05,2899.01 1935.7,2889.77C1915.41,2809.94 1843,2750.83 1756.9,2750.83C1670.82,2750.83 1598.43,2809.92 1578.12,2889.72C1575.77,2898.95 1567.22,2905.25 1557.7,2904.76C1451.03,2899.21 1344.52,2889.22 1238.17,2874.78C1237.33,2886.84 1236.9,2899.02 1236.9,2911.3C1236.9,2924.24 1237.38,2937.08 1238.31,2949.79Z" style="fill:rgb(192,192,192);"/>
                </g>
                <g transform="matrix(1.04667,0,0,1.04667,-1294.62,-2415.41)">
                    <circle cx="1755.2" cy="2847.05" r="88.376" style="fill:rgb(244,191,59);"/>
                    <path d="M1755.2,2758.67C1803.98,2758.67 1843.58,2798.27 1843.58,2847.05C1843.58,2895.82 1803.98,2935.42 1755.2,2935.42C1706.43,2935.42 1666.83,2895.82 1666.83,2847.05C1666.83,2798.27 1706.43,2758.67 1755.2,2758.67ZM1755.2,2768.22C1711.7,2768.22 1676.38,2803.54 1676.38,2847.05C1676.38,2890.55 1711.7,2925.87 1755.2,2925.87C1798.71,2925.87 1834.02,2890.55 1834.02,2847.05C1834.02,2803.54 1798.71,2768.22 1755.2,2768.22Z"/>
                </g>
                <g transform="matrix(1.32526,0,0,1,-11580,-1305.27)">
                    <path d="M8889.27,1425.36C8889.27,1425.36 9060.02,1455.36 9145.38,1455.36C9230.75,1455.36 9401.45,1425.36 9401.45,1425.36C9426,1451.69 9448.19,1481.72 9467.54,1514.8C9467.54,1514.8 9252.75,1554.8 9145.36,1554.8C9037.96,1554.8 8823.17,1514.8 8823.17,1514.8C8842.53,1481.72 8864.72,1451.69 8889.27,1425.36Z" style="fill:rgb(136,0,0);"/>
                </g>
                <g transform="matrix(1,0,0,1,-8580.07,-28.6142)">
                    <path d="M9547.05,238.149C9617.88,329.508 9660.07,444.174 9660.07,568.614C9660.07,866.648 9418.1,1108.61 9120.07,1108.61C8822.03,1108.61 8580.07,866.648 8580.07,568.614C8580.07,444.174 8622.25,329.508 8693.09,238.149C8718.74,205.063 8748.15,175.035 8780.68,148.705C8873.44,73.614 8991.54,28.614 9120.07,28.614C9248.59,28.614 9366.69,73.614 9459.46,148.705C9491.98,175.035 9521.39,205.063 9547.05,238.149ZM8716.12,241.285C8643.57,330.689 8600.07,444.612 8600.07,568.614C8600.07,855.61 8833.07,1088.61 9120.07,1088.61C9407.06,1088.61 9640.07,855.61 9640.07,568.614C9640.07,444.612 9596.57,330.689 9524.01,241.285C9453.45,250.711 9237.94,278.149 9120.07,278.149C9002.19,278.149 8786.68,250.711 8716.12,241.285ZM9431.49,152.265C9344.66,87.183 9236.83,48.614 9120.07,48.614C9003.3,48.614 8895.48,87.183 8808.64,152.264C8872.68,160.21 9031.27,178.705 9120.1,178.705C9208.92,178.705 9367.47,160.211 9431.49,152.265ZM8786.7,169.653C8767.02,186.115 8748.58,204.004 8731.53,223.16C8812.02,233.754 9009.37,258.149 9120.07,258.149C9230.76,258.149 9428.11,233.754 9508.6,223.16C9491.55,204.004 9473.11,186.115 9453.44,169.653C9410.79,175.118 9220.89,198.705 9120.1,198.705C9019.3,198.705 8829.35,175.117 8786.7,169.653Z" style="fill:rgb(244,191,59);"/>
                </g>
            </g>
        </g>
    </g>
</svg>
